<svg width="30" height="24" viewBox="0 0 30 24" fill="none" xmlns="http://www.w3.org/2000/svg">
<path d="M29.5485 21.9016L25.1115 18.4042C26.9797 16.399 28.2874 14.1606 28.8946 12.5752C29.0347 12.2021 29.0347 11.7358 28.8946 11.3627C28.194 9.54408 26.6528 6.97932 24.3643 4.83424C22.0757 2.64254 18.9465 0.82389 14.9766 0.82389C11.5672 0.82389 8.76494 2.17622 6.61653 3.94823L1.89938 0.264306C1.38563 -0.155382 0.638354 -0.0621179 0.264717 0.450834C-0.155624 0.963786 -0.0622142 1.7099 0.451536 2.08295L28.1006 23.7668C28.3341 23.9534 28.5677 24 28.8012 24C29.1281 24 29.5018 23.8601 29.7353 23.5337C30.1556 23.0674 30.0622 22.3212 29.5485 21.9016ZM15.0233 3.20212C18.1993 3.20212 20.8147 4.69435 22.823 6.60626C24.6912 8.37828 25.9522 10.4767 26.6528 12.0156C25.9989 13.4145 24.878 15.2798 23.2433 16.9586L20.5812 14.9068C21.0015 14.0207 21.2351 13.0881 21.2351 12.0156C21.2351 8.47154 18.4328 5.62699 15.0233 5.62699C13.4354 5.62699 11.9409 6.2332 10.8666 7.25911L8.57812 5.48709C10.3529 4.13476 12.5013 3.20212 15.0233 3.20212ZM14.6964 10.2436C14.9299 9.82387 15.0233 9.31092 15.0233 8.79796C15.0233 8.51817 14.9766 8.23838 14.8832 8.00522C14.9766 8.00522 14.9766 8.00522 15.0233 8.00522C17.1718 8.00522 18.8998 9.77724 18.8998 12.0156C18.8998 12.4819 18.8064 12.9482 18.6663 13.4145L14.6964 10.2436ZM19.3669 19.8031L21.4219 21.4352C19.6004 22.5078 17.452 23.2073 15.0233 23.2073C11.1002 23.2073 7.92426 21.3886 5.63574 19.1969C3.34722 17.0052 1.85267 14.4404 1.1054 12.6684C0.965285 12.2954 0.965285 11.829 1.1054 11.456C1.57244 10.2902 2.36642 8.8446 3.44063 7.399L5.30881 8.8446C4.46813 10.0104 3.81426 11.1296 3.39392 12.0622C4.04778 13.5544 5.35551 15.6995 7.22369 17.4715C9.23199 19.3834 11.8474 20.8757 15.0233 20.8757C16.6113 20.829 18.0591 20.456 19.3669 19.8031ZM15.0233 18.4042C11.5672 18.4042 8.81165 15.5596 8.81165 12.0156C8.81165 11.8757 8.81165 11.6891 8.81165 11.5493L11.4738 13.6477C11.9876 14.9068 13.1085 15.7928 14.4629 15.9793L17.1251 18.0311C16.4712 18.2643 15.7706 18.4042 15.0233 18.4042Z" fill="#CECECE"/>
</svg>
