<svg width="28" height="22" viewBox="0 0 28 22" fill="none" xmlns="http://www.w3.org/2000/svg">
<path d="M7.7985 11.046C7.7985 7.54812 10.5962 4.74059 14 4.74059C17.4038 4.74059 20.2015 7.54812 20.2015 11.046C20.2015 14.5439 17.4038 17.3515 14 17.3515C10.5962 17.3515 7.7985 14.5439 7.7985 11.046ZM14 15.0042C16.1449 15.0042 17.8701 13.2552 17.8701 11.046C17.8701 8.83682 16.1449 7.08787 14 7.08787C13.9534 7.08787 13.9534 7.08787 13.8601 7.08787C13.9534 7.31799 14 7.59414 14 7.87029C14 9.61925 12.6012 11.046 10.8759 11.046C10.5962 11.046 10.363 11 10.0833 10.908C10.0833 11 10.0833 11 10.0833 11C10.1299 13.2092 11.8551 15.0042 14 15.0042ZM4.62781 3.95816C6.91257 1.79498 10.0366 0 14 0C17.9634 0 21.0874 1.79498 23.3722 3.95816C25.657 6.07531 27.149 8.6067 27.8951 10.4017C28.035 10.7699 28.035 11.2301 27.8951 11.5983C27.1957 13.3473 25.657 15.8787 23.3722 18.0418C21.0874 20.205 17.9634 22 14 22C10.0366 22 6.91257 20.205 4.62781 18.0418C2.34305 15.8787 0.850958 13.3473 0.104913 11.5983C-0.0349709 11.2301 -0.0349709 10.7699 0.104913 10.4017C0.850958 8.65272 2.38968 6.12134 4.62781 3.95816ZM14 2.34728C10.8293 2.34728 8.21815 3.82008 6.21316 5.70711C4.34804 7.45607 3.04246 9.5272 2.38968 11.046C3.04246 12.5188 4.34804 14.636 6.21316 16.3849C8.21815 18.272 10.8293 19.7448 14 19.7448C17.1707 19.7448 19.7818 18.272 21.7868 16.3849C23.652 14.636 24.9109 12.5188 25.6103 11.046C24.8643 9.5272 23.652 7.45607 21.7868 5.70711C19.7818 3.82008 17.1707 2.34728 14 2.34728Z" fill="#CECECE"/>
</svg>
