<svg width="28" height="26" viewBox="0 0 28 26" fill="none" xmlns="http://www.w3.org/2000/svg">
<path d="M11 25C10.8128 25.0006 10.6292 24.9486 10.47 24.85C10.3259 24.7599 10.2071 24.6346 10.1249 24.4859C10.0426 24.3372 9.99967 24.1699 10 24V14.38L2.28001 5.81C1.45378 4.89003 0.99776 3.69653 1.00001 2.46V2C1.00001 1.73478 1.10537 1.48043 1.2929 1.29289C1.48044 1.10536 1.73479 1 2.00001 1H26C26.2652 1 26.5196 1.10536 26.7071 1.29289C26.8947 1.48043 27 1.73478 27 2V2.46C27.0023 3.69653 26.5462 4.89003 25.72 5.81L18 14.38V19.76C18.0011 20.3184 17.8463 20.8661 17.553 21.3414C17.2598 21.8166 16.8397 22.2006 16.34 22.45L11.45 24.89C11.3107 24.9614 11.1566 24.9991 11 25Z" stroke="#EAEAEA" stroke-width="2"/>
</svg>
