<svg width="67" height="17" viewBox="0 0 67 17" fill="none" xmlns="http://www.w3.org/2000/svg">
<path d="M17.2464 9.97738H23.3132V6.82024H17.2464V3.19762H23.8855V0H14.0795V6.82024H7.40223L12.2862 0H8.66137L3.16693 7.50833V0H0V17H3.16693V9.02619L8.8903 17H12.5151L7.57393 9.97738H14.0795V17H24V13.8024H17.2464V9.97738Z" fill="#FF0000"/>
<path d="M33.7051 9.75613C33.1056 9.5129 32.4888 9.31517 31.86 9.16457C31.3177 9.02819 30.7884 8.84388 30.2784 8.61378C29.8526 8.40979 29.6498 8.1446 29.6498 7.81822C29.6449 7.67266 29.6779 7.52834 29.7454 7.39953C29.813 7.27073 29.9129 7.16191 30.0351 7.08385C30.3441 6.90764 30.6937 6.81621 31.0489 6.81868C31.474 6.78526 31.8988 6.8875 32.2628 7.1109C32.6268 7.33429 32.9116 7.66747 33.0766 8.06303L35.7531 6.59429C35.3 5.78788 34.6331 5.124 33.8268 4.67677C33.0004 4.2228 32.0715 3.99094 31.13 4.00359C29.9486 3.95924 28.7883 4.32673 27.8452 5.04394C27.4109 5.37716 27.0626 5.81058 26.8296 6.30761C26.5967 6.80465 26.4861 7.35073 26.5069 7.89983C26.4755 8.63575 26.7055 9.35889 27.1558 9.93974C27.567 10.4571 28.1051 10.8579 28.7171 11.1025C29.3264 11.3432 29.9493 11.5475 30.5825 11.7145C31.1183 11.8506 31.6408 12.035 32.1438 12.2652C32.5696 12.4692 32.7927 12.7344 32.7927 13.0608C32.7927 13.7544 32.2249 14.1011 31.1097 14.1011C30.5898 14.1533 30.068 14.0235 29.6321 13.7337C29.1963 13.4438 28.8731 13.0117 28.7171 12.51L26 14.0603C26.4522 15.0145 27.1848 15.806 28.0987 16.3277C29.0125 16.8494 30.0636 17.0762 31.1097 16.9774C32.3506 17.0205 33.5727 16.6631 34.5973 15.9575C35.0526 15.6308 35.4191 15.1944 35.6636 14.6884C35.908 14.1824 36.0224 13.6228 35.9964 13.0608C36.0209 12.3258 35.7916 11.605 35.3475 11.0209C34.938 10.4437 34.3659 10.0032 33.7051 9.75613Z" fill="black"/>
<path d="M41.2103 1L38.0513 1.96681V4.45591H36V7.521H38.0513V12.6843C37.9751 13.338 38.0564 14.0005 38.2884 14.6162C38.5205 15.2319 38.8964 15.7827 39.3846 16.2225C40.8024 16.9674 42.4371 17.1859 44 16.8397V13.9597C43.3846 13.9597 42.8923 13.9597 42.482 13.9597C42.1381 13.9687 41.8026 13.8517 41.5385 13.6306C41.4229 13.5033 41.3342 13.3537 41.2778 13.1911C41.2214 13.0285 41.1984 12.8561 41.2103 12.6843V7.56212H44V4.45591H41.2103V1Z" fill="black"/>
<path d="M54.8619 5.80928C54.394 5.21163 53.7914 4.73606 53.1045 4.42244C52.4177 4.10883 51.6665 3.96629 50.914 4.00672C50.1263 4.00198 49.3466 4.16766 48.6273 4.49268C47.908 4.81769 47.2657 5.29452 46.7434 5.8912C45.6208 7.15764 45 8.79887 45 10.5C45 12.2011 45.6208 13.8424 46.7434 15.1088C47.2657 15.7055 47.908 16.1823 48.6273 16.5073C49.3466 16.8323 50.1263 16.998 50.914 16.9933C51.6665 17.0337 52.4177 16.8912 53.1045 16.5776C53.7914 16.2639 54.394 15.7884 54.8619 15.1907V16.6451H58V4.35493H54.8619V5.80928ZM53.9104 12.999C53.5893 13.3152 53.209 13.5633 52.7917 13.7286C52.3745 13.894 51.9288 13.9732 51.4809 13.9617C51.0388 13.9748 50.5988 13.896 50.1879 13.7305C49.7771 13.5649 49.4041 13.316 49.0919 12.999C48.4802 12.3138 48.1415 11.4233 48.1415 10.5C48.1415 9.57666 48.4802 8.68618 49.0919 8.001C49.4041 7.68403 49.7771 7.43511 50.1879 7.26953C50.5988 7.10396 51.0388 7.02525 51.4809 7.03827C52.1521 7.06341 52.8019 7.28327 53.353 7.6716C53.9041 8.05994 54.3333 8.60038 54.5893 9.22856C54.8453 9.85674 54.9175 10.5462 54.7971 11.2147C54.6767 11.8831 54.3689 12.5025 53.9104 12.999Z" fill="black"/>
<path d="M67 7.5196V4.45517H64.5652V1L61.7903 1.9666V4.45517H60V7.5196H61.7903V12.6818C61.726 13.3371 61.7998 14.0005 62.0054 14.6161C62.211 15.2318 62.5425 15.7816 62.9719 16.2192C64.2079 16.9691 65.6362 17.1879 67 16.8363V13.9569C66.4629 13.9569 66.0153 13.9569 65.6573 13.9569C65.3624 13.9666 65.075 13.8492 64.8517 13.6279C64.7481 13.5027 64.6689 13.3535 64.6195 13.1904C64.5701 13.0272 64.5516 12.8538 64.5652 12.6818V7.56071L67 7.5196Z" fill="black"/>
</svg>
