<svg width="140" height="141" viewBox="0 0 140 141" fill="none" xmlns="http://www.w3.org/2000/svg">
<path d="M50.4 1.93875V0H46.725C46.1928 0 45.7388 0.189109 45.3634 0.567328C44.9879 0.945546 44.8 1.40267 44.8 1.93875V5.64H50.4V1.93875Z" fill="black"/>
<path d="M55.9999 0H50.3999V5.64H55.9999V0Z" fill="black"/>
<path d="M61.6 0H56V5.64H61.6V0Z" fill="black"/>
<path d="M67.2001 0H61.6001V5.64H67.2001V0Z" fill="black"/>
<path d="M72.8 0H67.2V5.64H72.8V0Z" fill="black"/>
<path d="M78.4 0H72.8V5.64H78.4V0Z" fill="black"/>
<path d="M83.9999 1.93875C83.9999 1.40267 83.8121 0.945489 83.4366 0.567328C83.0611 0.189166 82.6072 0 82.0749 0H78.3999V5.64H83.9999V1.93875Z" fill="black"/>
<path d="M50.4 5.63989H44.8V11.2799H50.4V5.63989Z" fill="black"/>
<path d="M61.6 5.63989H56V9.34114C56 9.87722 56.1878 10.3344 56.5633 10.7126C56.9388 11.0907 57.3927 11.2799 57.925 11.2799H61.6V5.63989Z" fill="black"/>
<path d="M67.2001 5.63989H61.6001V11.2799H67.2001V5.63989Z" fill="black"/>
<path d="M72.8 5.63989H67.2V11.2799H72.8V5.63989Z" fill="black"/>
<path d="M78.4 5.63989H72.8V11.2799H78.4V5.63989Z" fill="black"/>
<path d="M83.9999 5.63989H78.3999V11.2799H83.9999V5.63989Z" fill="black"/>
<path d="M50.3891 13.0865H50.4V11.2799H44.8V13.0865H44.811C44.8037 13.1452 44.8 13.1893 44.8 13.2187V14.9812C44.8 15.5172 44.9878 15.9744 45.3634 16.3526C45.7389 16.7307 46.1928 16.9199 46.725 16.9199H48.475C49.0073 16.9199 49.4613 16.7307 49.8367 16.3526C50.2122 15.9744 50.4 15.5172 50.4 14.9812V13.2187C50.4 13.1893 50.3965 13.1452 50.3891 13.0865Z" fill="black"/>
<path d="M67.2001 11.2799H61.6001V16.9199H67.2001V11.2799Z" fill="black"/>
<path d="M78.4 11.2799H72.8V16.9199H78.4V11.2799Z" fill="black"/>
<path d="M83.9999 11.2799H78.3999V16.9199H83.9999V11.2799Z" fill="black"/>
<path d="M87.675 11.2799H84V16.9199H87.675C88.2073 16.9199 88.6612 16.7307 89.0367 16.3526C89.4122 15.9744 89.6 15.5172 89.6 14.9812V13.2187C89.6 12.6826 89.4122 12.2254 89.0367 11.8472C88.6612 11.4691 88.2073 11.2799 87.675 11.2799Z" fill="black"/>
<path d="M67.1892 18.7266H67.2001V16.92H61.6001V18.7266H61.611C61.6037 18.7854 61.6001 18.8294 61.6001 18.8588V20.6213C61.6001 21.1574 61.7879 21.6146 62.1634 21.9927C62.5389 22.3709 62.9928 22.56 63.5251 22.56H65.2751C65.8074 22.56 66.2613 22.3709 66.6368 21.9927C67.0123 21.6146 67.2001 21.1574 67.2001 20.6213V18.8588C67.2001 18.8294 67.1966 18.7854 67.1892 18.7266Z" fill="black"/>
<path d="M78.3891 18.7266H78.4V16.92H72.8V18.7266H72.811C72.8037 18.7854 72.8 18.8294 72.8 18.8588V20.6213C72.8 21.1574 72.9878 21.6146 73.3634 21.9927C73.7389 22.3709 74.1928 22.56 74.725 22.56H76.475C77.0073 22.56 77.4613 22.3709 77.8367 21.9927C78.2122 21.6146 78.4 21.1574 78.4 20.6213V18.8588C78.4 18.8294 78.3965 18.7854 78.3891 18.7266Z" fill="black"/>
<path d="M50.4 24.4987V22.5599H46.725C46.1928 22.5599 45.7388 22.749 45.3634 23.1273C44.9879 23.5055 44.8 23.9626 44.8 24.4987V26.2612C44.8 26.7973 44.9878 27.2544 45.3634 27.6326C45.7389 28.0108 46.1928 28.1999 46.725 28.1999H50.4V24.4987Z" fill="black"/>
<path d="M54.0749 22.5599H50.3999V28.1999H54.0749C54.6072 28.1999 55.0611 28.0108 55.4366 27.6326C55.8121 27.2544 55.9999 26.7973 55.9999 26.2612V24.4987C55.9999 23.9626 55.8121 23.5054 55.4366 23.1273C55.0611 22.7491 54.6072 22.5599 54.0749 22.5599Z" fill="black"/>
<path d="M95.2001 26.2612C95.2001 26.7974 95.0122 27.2544 94.6368 27.6326C94.2613 28.0107 93.8075 28.1999 93.2751 28.1999H91.5251C90.9929 28.1999 90.5389 28.0107 90.1635 27.6326C89.7879 27.2544 89.6001 26.7974 89.6001 26.2612V24.4987C89.6001 23.9627 89.7879 23.5055 90.1634 23.1273C90.539 22.7491 90.9929 22.5599 91.5251 22.5599H93.2751C93.8075 22.5599 94.2614 22.749 94.6368 23.1273C95.0123 23.5055 95.2001 23.9627 95.2001 24.4987V26.2612Z" fill="black"/>
<path d="M67.2001 30.1387V28.2H63.5251C62.9928 28.2 62.5389 28.3891 62.1634 28.7673C61.7879 29.1455 61.6001 29.6026 61.6001 30.1387V31.9012C61.6001 32.4373 61.7879 32.8945 62.1634 33.2726C62.5389 33.6508 62.9928 33.84 63.5251 33.84H67.2001V30.1387Z" fill="black"/>
<path d="M72.8 30.1387C72.8 29.6026 72.6121 29.1454 72.2366 28.7673C71.8612 28.3891 71.4072 28.2 70.875 28.2H67.2V33.84H72.8V30.1387Z" fill="black"/>
<path d="M83.9999 30.1387C83.9999 29.6026 83.8121 29.1454 83.4366 28.7673C83.0611 28.3891 82.6072 28.2 82.0749 28.2H80.3249C79.7926 28.2 79.3387 28.3891 78.9632 28.7673C78.5877 29.1455 78.3999 29.6026 78.3999 30.1387V31.9012C78.3999 31.9306 78.4035 31.9747 78.4108 32.0334H78.3999V33.84H83.9999V32.0334H83.989C83.9964 31.9747 83.9999 31.9306 83.9999 31.9012V30.1387Z" fill="black"/>
<path d="M50.4 37.5411C50.4 38.0773 50.2122 38.5344 49.8367 38.9125C49.4613 39.2906 49.0074 39.4798 48.475 39.4798H46.725C46.1928 39.4798 45.7389 39.2906 45.3634 38.9125C44.9879 38.5344 44.8 38.0773 44.8 37.5411V35.7786C44.8 35.2426 44.9878 34.7854 45.3634 34.4072C45.7389 34.029 46.1928 33.8398 46.725 33.8398H48.475C49.0075 33.8398 49.4614 34.029 49.8367 34.4072C50.2122 34.7854 50.4 35.2426 50.4 35.7786V37.5411Z" fill="black"/>
<path d="M61.6 35.7786C61.6 35.2425 61.4122 34.7853 61.0367 34.4072C60.6612 34.029 60.2073 33.8398 59.675 33.8398H57.925C57.3927 33.8398 56.9388 34.029 56.5633 34.4072C56.1878 34.7854 56 35.2425 56 35.7786V37.5411C56 37.5705 56.0036 37.6146 56.0109 37.6733H56V39.4798H61.6V37.6733H61.5891C61.5965 37.6146 61.6 37.5705 61.6 37.5411V35.7786Z" fill="black"/>
<path d="M72.8 33.8398H67.2V39.4798H72.8V33.8398Z" fill="black"/>
<path d="M83.9999 33.8398H78.3999V39.4798H83.9999V33.8398Z" fill="black"/>
<path d="M95.2001 37.5411C95.2001 38.0773 95.0122 38.5344 94.6368 38.9125C94.2613 39.2906 93.8075 39.4798 93.2751 39.4798H91.5251C90.9929 39.4798 90.5389 39.2906 90.1635 38.9125C89.7879 38.5344 89.6001 38.0773 89.6001 37.5411V35.7786C89.6001 35.2426 89.7879 34.7854 90.1634 34.4072C90.539 34.029 90.9929 33.8398 91.5251 33.8398H93.2751C93.8075 33.8398 94.2614 34.029 94.6368 34.4072C95.0123 34.7854 95.2001 35.2426 95.2001 35.7786V37.5411Z" fill="black"/>
<path d="M61.6 39.48H56V43.1812C56 43.7173 56.1878 44.1745 56.5633 44.5527C56.9388 44.9308 57.3927 45.12 57.925 45.12H61.6V39.48Z" fill="black"/>
<path d="M67.2001 39.48H61.6001V45.12H67.2001V39.48Z" fill="black"/>
<path d="M72.8 39.48H67.2V45.12H72.8V39.48Z" fill="black"/>
<path d="M78.4 39.48H72.8V45.12H78.4V39.48Z" fill="black"/>
<path d="M83.9999 39.48H78.3999V45.12H83.9999V39.48Z" fill="black"/>
<path d="M89.6 41.4187C89.6 40.8826 89.4122 40.4255 89.0367 40.0473C88.6612 39.6691 88.2073 39.48 87.675 39.48H84V45.12H89.6V41.4187Z" fill="black"/>
<path d="M5.6 48.8212C5.6 49.3574 5.41212 49.8145 5.0367 50.1927C4.66122 50.5708 4.20739 50.76 3.675 50.76H1.925C1.39278 50.76 0.93884 50.5708 0.56336 50.1927C0.187824 49.8145 0 49.3574 0 48.8212V47.0587C0 46.5227 0.187768 46.0655 0.563304 45.6874C0.938896 45.3092 1.39278 45.12 1.925 45.12H3.675C4.20745 45.12 4.66133 45.3091 5.0367 45.6873C5.41218 46.0656 5.6 46.5227 5.6 47.0587V48.8212Z" fill="black"/>
<path d="M22.4 47.0587V45.12H18.725C18.1928 45.12 17.7388 45.3091 17.3634 45.6873C16.9879 46.0655 16.8 46.5227 16.8 47.0587V50.76H22.4V47.0587Z" fill="black"/>
<path d="M28.0001 45.12H22.4001V50.76H28.0001V45.12Z" fill="black"/>
<path d="M33.6 45.12H28V50.76H33.6V45.12Z" fill="black"/>
<path d="M39.2001 45.12H33.6001V50.76H39.2001V45.12Z" fill="black"/>
<path d="M44.8 45.12H39.2V50.76H44.8V45.12Z" fill="black"/>
<path d="M50.4 47.0587C50.4 46.5227 50.2122 46.0655 49.8367 45.6873C49.4613 45.3092 49.0073 45.12 48.475 45.12H44.8V50.76H50.4V47.0587Z" fill="black"/>
<path d="M67.2001 45.12H61.6001V50.76H67.2001V45.12Z" fill="black"/>
<path d="M72.8 45.12H67.2V50.76H72.8V45.12Z" fill="black"/>
<path d="M78.4 45.12H72.8V50.76H78.4V45.12Z" fill="black"/>
<path d="M83.9999 45.12H78.3999V50.76H83.9999V45.12Z" fill="black"/>
<path d="M89.6 45.12H84V50.76H89.6V45.12Z" fill="black"/>
<path d="M100.8 48.8212C100.8 49.3574 100.612 49.8145 100.237 50.1927C99.8612 50.5708 99.4073 50.76 98.875 50.76H97.125C96.5927 50.76 96.1388 50.5708 95.7633 50.1927C95.3878 49.8145 95.2 49.3574 95.2 48.8212V47.0587C95.2 46.5227 95.3877 46.0655 95.7633 45.6874C96.1388 45.3092 96.5927 45.12 97.125 45.12H98.875C99.4074 45.12 99.8613 45.3091 100.237 45.6873C100.612 46.0656 100.8 46.5227 100.8 47.0587V48.8212Z" fill="black"/>
<path d="M117.6 47.0587C117.6 46.5227 117.412 46.0655 117.037 45.6873C116.661 45.3092 116.207 45.12 115.675 45.12H113.925C113.393 45.12 112.939 45.3091 112.563 45.6873C112.188 46.0655 112 46.5227 112 47.0587V48.8212C112 48.8506 112.004 48.8947 112.011 48.9534H112V50.76H117.6V48.9534H117.589C117.596 48.8947 117.6 48.8507 117.6 48.8212V47.0587Z" fill="black"/>
<path d="M128.8 47.0587V45.12H125.125C124.593 45.12 124.139 45.3091 123.763 45.6873C123.388 46.0655 123.2 46.5227 123.2 47.0587V50.76H128.8V47.0587Z" fill="black"/>
<path d="M134.4 45.12H128.8V50.76H134.4V45.12Z" fill="black"/>
<path d="M138.075 45.12H134.4V50.76H138.075C138.607 50.76 139.061 50.5708 139.437 50.1927C139.812 49.8145 140 49.3573 140 48.8212V47.0587C140 46.5227 139.812 46.0655 139.437 45.6873C139.061 45.3092 138.607 45.12 138.075 45.12Z" fill="black"/>
<path d="M22.4 50.7596H16.8V56.3996H22.4V50.7596Z" fill="black"/>
<path d="M28.0001 50.7596H22.4001V56.3996H28.0001V50.7596Z" fill="black"/>
<path d="M50.4 50.7596H44.8V54.4609C44.8 54.997 44.9878 55.4542 45.3634 55.8323C45.7389 56.2105 46.1928 56.3996 46.725 56.3996H50.4V50.7596Z" fill="black"/>
<path d="M55.9999 52.6984C55.9999 52.1623 55.8121 51.7051 55.4366 51.327C55.0611 50.9488 54.6072 50.7596 54.0749 50.7596H50.3999V56.3996H55.9999V52.6984Z" fill="black"/>
<path d="M67.2001 50.7596H61.6001V56.3996H67.2001V50.7596Z" fill="black"/>
<path d="M78.4 50.7596H72.8V56.3996H78.4V50.7596Z" fill="black"/>
<path d="M89.6 50.7596H84V56.3996H89.6V50.7596Z" fill="black"/>
<path d="M117.6 50.7596H112V56.3996H117.6V50.7596Z" fill="black"/>
<path d="M123.2 50.7596H117.6V56.3996H123.2V50.7596Z" fill="black"/>
<path d="M128.8 50.7596H123.2V56.3996H128.8V50.7596Z" fill="black"/>
<path d="M134.4 50.7596H128.8V56.3996H132.475C133.007 56.3996 133.461 56.2105 133.837 55.8323C134.212 55.4542 134.4 54.997 134.4 54.4609V50.7596Z" fill="black"/>
<path d="M5.6 58.3385V56.3998H1.925C1.39272 56.3998 0.938784 56.5889 0.563304 56.9671C0.187824 57.3453 0 57.8024 0 58.3385V60.101C0 60.6371 0.187768 61.0943 0.563304 61.4725C0.93884 61.8506 1.39272 62.0398 1.925 62.0398H5.6V58.3385Z" fill="black"/>
<path d="M11.2001 58.3385C11.2001 57.8024 11.0123 57.3453 10.6368 56.9671C10.2613 56.5889 9.80738 56.3998 9.2751 56.3998H5.6001V62.0398H11.2001V58.3385Z" fill="black"/>
<path d="M22.4 56.3998H16.8V62.0398H22.4V56.3998Z" fill="black"/>
<path d="M28.0001 56.3998H22.4001V62.0398H28.0001V56.3998Z" fill="black"/>
<path d="M33.6 56.3998H28V62.0398H33.6V56.3998Z" fill="black"/>
<path d="M37.2751 56.3998H33.6001V62.0398H37.2751C37.8074 62.0398 38.2613 61.8506 38.6368 61.4725C39.0123 61.0943 39.2001 60.6371 39.2001 60.101V58.3385C39.2001 57.8024 39.0123 57.3453 38.6368 56.9671C38.2613 56.5889 37.8074 56.3998 37.2751 56.3998Z" fill="black"/>
<path d="M55.9999 56.3998H50.3999V62.0398H55.9999V56.3998Z" fill="black"/>
<path d="M67.1892 58.2063H67.2001V56.3998H61.6001V58.2063H61.611C61.6037 58.2651 61.6001 58.3091 61.6001 58.3385V60.101C61.6001 60.6371 61.7879 61.0943 62.1634 61.4725C62.5389 61.8506 62.9928 62.0398 63.5251 62.0398H65.2751C65.8074 62.0398 66.2613 61.8506 66.6368 61.4725C67.0123 61.0943 67.2001 60.6371 67.2001 60.101V58.3385C67.2001 58.3091 67.1966 58.2651 67.1892 58.2063Z" fill="black"/>
<path d="M78.3891 58.2063H78.4V56.3998H72.8V58.2063H72.811C72.8037 58.2651 72.8 58.3091 72.8 58.3385V60.101C72.8 60.6371 72.9878 61.0943 73.3634 61.4725C73.7389 61.8506 74.1928 62.0398 74.725 62.0398H76.475C77.0073 62.0398 77.4613 61.8506 77.8367 61.4725C78.2122 61.0943 78.4 60.6371 78.4 60.101V58.3385C78.4 58.3091 78.3965 58.2651 78.3891 58.2063Z" fill="black"/>
<path d="M89.6 56.3998H84V60.101C84 60.6371 84.1878 61.0943 84.5633 61.4725C84.9388 61.8506 85.3927 62.0398 85.925 62.0398H89.6V56.3998Z" fill="black"/>
<path d="M93.2751 56.3998H89.6001V62.0398H93.2751C93.8074 62.0398 94.2613 61.8506 94.6368 61.4725C95.0123 61.0943 95.2001 60.6371 95.2001 60.101V58.3385C95.2001 57.8024 95.0123 57.3453 94.6368 56.9671C94.2613 56.5889 93.8074 56.3998 93.2751 56.3998Z" fill="black"/>
<path d="M117.6 56.3998H112V60.101C112 60.6371 112.188 61.0943 112.563 61.4725C112.939 61.8506 113.393 62.0398 113.925 62.0398H117.6V56.3998Z" fill="black"/>
<path d="M123.2 56.3998H117.6V62.0398H123.2V56.3998Z" fill="black"/>
<path d="M140 58.3385C140 57.8024 139.812 57.3453 139.437 56.9671C139.061 56.5889 138.607 56.3998 138.075 56.3998H136.325C135.793 56.3998 135.339 56.5889 134.963 56.9671C134.588 57.3453 134.4 57.8024 134.4 58.3385V60.101C134.4 60.1304 134.404 60.1745 134.411 60.2332H134.4V62.0398H140V60.2332H139.989C139.996 60.1745 140 60.1305 140 60.101V58.3385Z" fill="black"/>
<path d="M11.1892 63.8466H11.2001V62.04H5.6001V63.8466H5.61102C5.60374 63.9054 5.6001 63.9494 5.6001 63.9788V65.7413C5.6001 66.2774 5.78787 66.7345 6.1634 67.1127C6.53894 67.4909 6.99282 67.68 7.5251 67.68H9.2751C9.80738 67.68 10.2613 67.4909 10.6368 67.1127C11.0123 66.7345 11.2001 66.2774 11.2001 65.7413V63.9788C11.2001 63.9494 11.1966 63.9054 11.1892 63.8466Z" fill="black"/>
<path d="M22.3891 63.8466H22.4V62.04H16.8V63.8466H16.811C16.8037 63.9054 16.8 63.9494 16.8 63.9788V65.7413C16.8 66.2774 16.9878 66.7345 17.3634 67.1127C17.7389 67.4909 18.1928 67.68 18.725 67.68H20.475C21.0073 67.68 21.4613 67.4909 21.8367 67.1127C22.2122 66.7345 22.4 66.2774 22.4 65.7413V63.9788C22.4 63.9494 22.3965 63.9054 22.3891 63.8466Z" fill="black"/>
<path d="M33.5891 63.8466H33.6V62.04H28V63.8466H28.0109C28.0036 63.9054 28 63.9494 28 63.9788V65.7413C28 66.2774 28.1878 66.7345 28.5633 67.1127C28.9388 67.4909 29.3927 67.68 29.925 67.68H31.675C32.2073 67.68 32.6612 67.4909 33.0367 67.1127C33.4122 66.7345 33.6 66.2774 33.6 65.7413V63.9788C33.6 63.9494 33.5965 63.9054 33.5891 63.8466Z" fill="black"/>
<path d="M44.8 63.9788C44.8 63.4427 44.6121 62.9855 44.2366 62.6074C43.8612 62.2292 43.4072 62.04 42.875 62.04H41.125C40.5927 62.04 40.1387 62.2291 39.7633 62.6074C39.3878 62.9856 39.2 63.4427 39.2 63.9788V65.7413C39.2 65.7707 39.2036 65.8148 39.2109 65.8735H39.2V67.68H44.8V65.8735H44.789C44.7964 65.8148 44.8 65.7707 44.8 65.7413V63.9788Z" fill="black"/>
<path d="M55.9999 62.04H50.3999V67.68H55.9999V62.04Z" fill="black"/>
<path d="M72.8 63.9788C72.8 63.4427 72.6121 62.9855 72.2366 62.6074C71.8612 62.2292 71.4072 62.04 70.875 62.04H69.125C68.5927 62.04 68.1387 62.2291 67.7633 62.6074C67.3878 62.9856 67.2 63.4427 67.2 63.9788V65.7413C67.2 65.7707 67.2036 65.8148 67.2109 65.8735H67.2V67.68H72.8V65.8735H72.789C72.7964 65.8148 72.8 65.7707 72.8 65.7413V63.9788Z" fill="black"/>
<path d="M83.9999 65.7413C83.9999 66.2775 83.812 66.7345 83.4366 67.1127C83.0611 67.4908 82.6073 67.68 82.0749 67.68H80.3249C79.7927 67.68 79.3387 67.4908 78.9633 67.1127C78.5877 66.7345 78.3999 66.2775 78.3999 65.7413V63.9788C78.3999 63.4428 78.5877 62.9856 78.9632 62.6074C79.3388 62.2292 79.7927 62.04 80.3249 62.04H82.0749C82.6073 62.04 83.0612 62.2291 83.4366 62.6074C83.8121 62.9856 83.9999 63.4428 83.9999 63.9788V65.7413Z" fill="black"/>
<path d="M100.8 65.7413C100.8 66.2775 100.612 66.7345 100.237 67.1127C99.8612 67.4908 99.4073 67.68 98.875 67.68H97.125C96.5927 67.68 96.1388 67.4908 95.7633 67.1127C95.3878 66.7345 95.2 66.2775 95.2 65.7413V63.9788C95.2 63.4428 95.3877 62.9856 95.7633 62.6074C96.1388 62.2292 96.5927 62.04 97.125 62.04H98.875C99.4074 62.04 99.8613 62.2291 100.237 62.6074C100.612 62.9856 100.8 63.4428 100.8 63.9788V65.7413Z" fill="black"/>
<path d="M112 65.7413C112 66.2775 111.812 66.7345 111.437 67.1127C111.061 67.4908 110.607 67.68 110.075 67.68H108.325C107.793 67.68 107.339 67.4908 106.963 67.1127C106.588 66.7345 106.4 66.2775 106.4 65.7413V63.9788C106.4 63.4428 106.588 62.9856 106.963 62.6074C107.339 62.2292 107.793 62.04 108.325 62.04H110.075C110.607 62.04 111.061 62.2291 111.437 62.6074C111.812 62.9856 112 63.4428 112 63.9788V65.7413Z" fill="black"/>
<path d="M123.2 62.04H117.6V65.7413C117.6 66.2774 117.788 66.7345 118.163 67.1127C118.539 67.4909 118.993 67.68 119.525 67.68H123.2V62.04Z" fill="black"/>
<path d="M128.8 62.04H123.2V67.68H128.8V62.04Z" fill="black"/>
<path d="M134.4 62.04H128.8V67.68H134.4V62.04Z" fill="black"/>
<path d="M140 62.04H134.4V67.68H140V62.04Z" fill="black"/>
<path d="M39.2001 69.6189V67.6802H35.5251C34.9928 67.6802 34.5389 67.8693 34.1634 68.2475C33.7879 68.6257 33.6001 69.0828 33.6001 69.6189V71.3814C33.6001 71.9175 33.7879 72.3747 34.1634 72.7528C34.5389 73.131 34.9928 73.3202 35.5251 73.3202H39.2001V69.6189Z" fill="black"/>
<path d="M44.8 67.6802H39.2V73.3202H44.8V67.6802Z" fill="black"/>
<path d="M55.989 69.4867H55.9999V67.6802H50.3999V69.4867H50.4108C50.4035 69.5455 50.3999 69.5895 50.3999 69.6189V71.3814C50.3999 71.9175 50.5877 72.3747 50.9632 72.7528C51.3387 73.131 51.7926 73.3202 52.3249 73.3202H54.0749C54.6072 73.3202 55.0611 73.131 55.4366 72.7528C55.8121 72.3747 55.9999 71.9175 55.9999 71.3814V69.6189C55.9999 69.5895 55.9964 69.5455 55.989 69.4867Z" fill="black"/>
<path d="M72.789 69.4867H72.8V67.6802H67.2V69.4867H67.2109C67.2036 69.5455 67.2 69.5895 67.2 69.6189V71.3814C67.2 71.9175 67.3877 72.3747 67.7633 72.7528C68.1388 73.131 68.5927 73.3202 69.125 73.3202H70.875C71.4072 73.3202 71.8612 73.131 72.2366 72.7528C72.6121 72.3747 72.8 71.9175 72.8 71.3814V69.6189C72.8 69.5895 72.7964 69.5455 72.789 69.4867Z" fill="black"/>
<path d="M89.6 69.6189V67.6802H85.925C85.3927 67.6802 84.9388 67.8693 84.5633 68.2475C84.1878 68.6257 84 69.0828 84 69.6189V71.3814C84 71.9175 84.1878 72.3747 84.5633 72.7528C84.9388 73.131 85.3927 73.3202 85.925 73.3202H89.6V69.6189Z" fill="black"/>
<path d="M95.2001 69.6189C95.2001 69.0828 95.0123 68.6257 94.6368 68.2475C94.2613 67.8693 93.8074 67.6802 93.2751 67.6802H89.6001V73.3202H95.2001V69.6189Z" fill="black"/>
<path d="M106.4 71.3814C106.4 71.9176 106.212 72.3747 105.837 72.7528C105.461 73.131 105.007 73.3202 104.475 73.3202H102.725C102.193 73.3202 101.739 73.131 101.363 72.7528C100.988 72.3747 100.8 71.9176 100.8 71.3814V69.6189C100.8 69.0829 100.988 68.6257 101.363 68.2476C101.739 67.8693 102.193 67.6802 102.725 67.6802H104.475C105.007 67.6802 105.461 67.8693 105.837 68.2475C106.212 68.6258 106.4 69.0829 106.4 69.6189V71.3814Z" fill="black"/>
<path d="M139.989 69.4867H140V67.6802H134.4V69.4867H134.411C134.404 69.5455 134.4 69.5895 134.4 69.6189V71.3814C134.4 71.9175 134.588 72.3747 134.963 72.7528C135.339 73.131 135.793 73.3202 136.325 73.3202H138.075C138.607 73.3202 139.061 73.131 139.437 72.7528C139.812 72.3747 140 71.9175 140 71.3814V69.6189C140 69.5895 139.996 69.5455 139.989 69.4867Z" fill="black"/>
<path d="M5.6 75.2586C5.6 74.7225 5.41218 74.2653 5.0367 73.8872C4.66122 73.509 4.20728 73.3198 3.675 73.3198H1.925C1.39272 73.3198 0.938784 73.5089 0.563304 73.8872C0.187824 74.2654 0 74.7225 0 75.2586V77.0211C0 77.0505 0.00364 77.0946 0.01092 77.1533H0V78.9598H5.6V77.1533H5.58908C5.59647 77.0946 5.6 77.0505 5.6 77.0211V75.2586Z" fill="black"/>
<path d="M33.6 77.0211C33.6 77.5573 33.4121 78.0143 33.0367 78.3925C32.6612 78.7706 32.2074 78.9598 31.675 78.9598H29.925C29.3928 78.9598 28.9388 78.7706 28.5634 78.3925C28.1878 78.0143 28 77.5573 28 77.0211V75.2586C28 74.7225 28.1878 74.2654 28.5633 73.8872C28.9389 73.509 29.3928 73.3198 29.925 73.3198H31.675C32.2074 73.3198 32.6613 73.5089 33.0367 73.8872C33.4122 74.2654 33.6 74.7225 33.6 75.2586V77.0211Z" fill="black"/>
<path d="M44.8 73.3198H39.2V78.9598H44.8V73.3198Z" fill="black"/>
<path d="M48.475 73.3198H44.8V78.9598H48.475C49.0073 78.9598 49.4613 78.7707 49.8367 78.3925C50.2122 78.0143 50.4 77.5572 50.4 77.0211V75.2586C50.4 74.7225 50.2122 74.2653 49.8367 73.8872C49.4613 73.509 49.0073 73.3198 48.475 73.3198Z" fill="black"/>
<path d="M61.6 77.0211C61.6 77.5573 61.4121 78.0143 61.0367 78.3925C60.6612 78.7706 60.2074 78.9598 59.675 78.9598H57.925C57.3928 78.9598 56.9388 78.7706 56.5634 78.3925C56.1878 78.0143 56 77.5573 56 77.0211V75.2586C56 74.7225 56.1878 74.2654 56.5633 73.8872C56.9389 73.509 57.3928 73.3198 57.925 73.3198H59.675C60.2074 73.3198 60.6613 73.5089 61.0367 73.8872C61.4122 74.2654 61.6 74.7225 61.6 75.2586V77.0211Z" fill="black"/>
<path d="M78.4 75.2586V73.3198H74.725C74.1928 73.3198 73.7388 73.5089 73.3634 73.8872C72.9879 74.2654 72.8 74.7225 72.8 75.2586V77.0211C72.8 77.5572 72.9878 78.0143 73.3634 78.3925C73.7389 78.7707 74.1928 78.9598 74.725 78.9598H78.4V75.2586Z" fill="black"/>
<path d="M82.0749 73.3198H78.3999V78.9598H82.0749C82.6072 78.9598 83.0611 78.7707 83.4366 78.3925C83.8121 78.0143 83.9999 77.5572 83.9999 77.0211V75.2586C83.9999 74.7225 83.8121 74.2653 83.4366 73.8872C83.0611 73.509 82.6072 73.3198 82.0749 73.3198Z" fill="black"/>
<path d="M95.1892 75.1264H95.2001V73.3198H89.6001V75.1264H89.611C89.6037 75.1851 89.6001 75.2292 89.6001 75.2586V77.0211C89.6001 77.5572 89.7879 78.0143 90.1634 78.3925C90.5389 78.7707 90.9928 78.9598 91.5251 78.9598H93.2751C93.8074 78.9598 94.2613 78.7707 94.6368 78.3925C95.0123 78.0143 95.2001 77.5572 95.2001 77.0211V75.2586C95.2001 75.2292 95.1966 75.1851 95.1892 75.1264Z" fill="black"/>
<path d="M117.6 75.2586C117.6 74.7225 117.412 74.2653 117.037 73.8872C116.661 73.509 116.207 73.3198 115.675 73.3198H113.925C113.393 73.3198 112.939 73.5089 112.563 73.8872C112.188 74.2654 112 74.7225 112 75.2586V77.0211C112 77.0505 112.004 77.0946 112.011 77.1533H112V78.9598H117.6V77.1533H117.589C117.596 77.0946 117.6 77.0505 117.6 77.0211V75.2586Z" fill="black"/>
<path d="M134.4 75.2586C134.4 74.7225 134.212 74.2653 133.837 73.8872C133.461 73.509 133.007 73.3198 132.475 73.3198H130.725C130.193 73.3198 129.739 73.5089 129.363 73.8872C128.988 74.2654 128.8 74.7225 128.8 75.2586V77.0211C128.8 77.0505 128.804 77.0946 128.811 77.1533H128.8V78.9598H134.4V77.1533H134.389C134.397 77.0946 134.4 77.0505 134.4 77.0211V75.2586Z" fill="black"/>
<path d="M5.6 78.96H0V84.6H5.6V78.96Z" fill="black"/>
<path d="M11.2001 78.96H5.6001V84.6H11.2001V78.96Z" fill="black"/>
<path d="M16.8 80.8987C16.8 80.3626 16.6121 79.9055 16.2366 79.5273C15.8612 79.1491 15.4072 78.96 14.875 78.96H11.2V84.6H16.8V80.8987Z" fill="black"/>
<path d="M28.0001 80.8987C28.0001 80.3626 27.8123 79.9055 27.4368 79.5273C27.0614 79.1491 26.6074 78.96 26.0751 78.96H24.3251C23.7929 78.96 23.3389 79.1491 22.9635 79.5273C22.588 79.9055 22.4001 80.3626 22.4001 80.8987V82.6612C22.4001 82.6906 22.4038 82.7347 22.4111 82.7934H22.4001V84.6H28.0001V82.7934H27.9892C27.9966 82.7347 28.0001 82.6907 28.0001 82.6612V80.8987Z" fill="black"/>
<path d="M39.2001 80.8987V78.96H35.5251C34.9928 78.96 34.5389 79.1491 34.1634 79.5273C33.7879 79.9055 33.6001 80.3626 33.6001 80.8987V82.6612C33.6001 83.1973 33.7879 83.6545 34.1634 84.0326C34.5389 84.4108 34.9928 84.6 35.5251 84.6H39.2001V80.8987Z" fill="black"/>
<path d="M44.8 78.96H39.2V84.6H44.8V78.96Z" fill="black"/>
<path d="M67.2001 80.8987V78.96H63.5251C62.9928 78.96 62.5389 79.1491 62.1634 79.5273C61.7879 79.9055 61.6001 80.3626 61.6001 80.8987V84.6H67.2001V80.8987Z" fill="black"/>
<path d="M70.875 78.96H67.2V84.6H70.875C71.4072 84.6 71.8612 84.4108 72.2366 84.0326C72.6121 83.6545 72.8 83.1973 72.8 82.6612V80.8987C72.8 80.3626 72.6121 79.9055 72.2366 79.5273C71.8612 79.1491 71.4072 78.96 70.875 78.96Z" fill="black"/>
<path d="M89.6 80.8987C89.6 80.3626 89.4122 79.9055 89.0367 79.5273C88.6612 79.1491 88.2073 78.96 87.675 78.96H85.925C85.3927 78.96 84.9388 79.1491 84.5633 79.5273C84.1878 79.9055 84 80.3626 84 80.8987V82.6612C84 82.6906 84.0036 82.7347 84.0109 82.7934H84V84.6H89.6V82.7934H89.5891C89.5965 82.7347 89.6 82.6907 89.6 82.6612V80.8987Z" fill="black"/>
<path d="M100.8 80.8987C100.8 80.3626 100.612 79.9055 100.237 79.5273C99.8612 79.1491 99.4072 78.96 98.875 78.96H97.125C96.5927 78.96 96.1387 79.1491 95.7633 79.5273C95.3878 79.9055 95.2 80.3626 95.2 80.8987V82.6612C95.2 82.6906 95.2036 82.7347 95.2109 82.7934H95.2V84.6H100.8V82.7934H100.789C100.796 82.7347 100.8 82.6907 100.8 82.6612V80.8987Z" fill="black"/>
<path d="M117.6 78.96H112V82.6612C112 83.1973 112.188 83.6545 112.563 84.0326C112.939 84.4108 113.393 84.6 113.925 84.6H117.6V78.96Z" fill="black"/>
<path d="M123.2 78.96H117.6V84.6H123.2V78.96Z" fill="black"/>
<path d="M128.8 78.96H123.2V84.6H128.8V78.96Z" fill="black"/>
<path d="M134.4 78.96H128.8V84.6H134.4V78.96Z" fill="black"/>
<path d="M140 80.8987C140 80.3626 139.812 79.9055 139.437 79.5273C139.061 79.1491 138.607 78.96 138.075 78.96H134.4V84.6H140V80.8987Z" fill="black"/>
<path d="M5.6 84.6002H0V90.2402H5.6V84.6002Z" fill="black"/>
<path d="M16.8 84.6002H11.2V90.2402H16.8V84.6002Z" fill="black"/>
<path d="M22.4 84.6002H16.8V90.2402H22.4V84.6002Z" fill="black"/>
<path d="M28.0001 84.6002H22.4001V90.2402H28.0001V84.6002Z" fill="black"/>
<path d="M44.8 84.6002H39.2V90.2402H44.8V84.6002Z" fill="black"/>
<path d="M50.4 84.6002H44.8V90.2402H50.4V84.6002Z" fill="black"/>
<path d="M55.9999 86.539C55.9999 86.0029 55.8121 85.5457 55.4366 85.1675C55.0611 84.7894 54.6072 84.6002 54.0749 84.6002H50.3999V90.2402H55.9999V86.539Z" fill="black"/>
<path d="M67.1892 86.4068H67.2001V84.6002H61.6001V86.4068H61.611C61.6037 86.4655 61.6001 86.5096 61.6001 86.539V88.3015C61.6001 88.8376 61.7879 89.2947 62.1634 89.6729C62.5389 90.0511 62.9928 90.2402 63.5251 90.2402H65.2751C65.8074 90.2402 66.2613 90.0511 66.6368 89.6729C67.0123 89.2947 67.2001 88.8376 67.2001 88.3015V86.539C67.2001 86.5096 67.1966 86.4655 67.1892 86.4068Z" fill="black"/>
<path d="M83.9999 86.539V84.6002H80.3249C79.7926 84.6002 79.3387 84.7893 78.9632 85.1675C78.5877 85.5458 78.3999 86.0029 78.3999 86.539V88.3015C78.3999 88.8376 78.5877 89.2947 78.9632 89.6729C79.3387 90.0511 79.7926 90.2402 80.3249 90.2402H83.9999V86.539Z" fill="black"/>
<path d="M89.6 84.6002H84V90.2402H89.6V84.6002Z" fill="black"/>
<path d="M95.2001 84.6002H89.6001V90.2402H95.2001V84.6002Z" fill="black"/>
<path d="M100.8 84.6002H95.2V90.2402H100.8V84.6002Z" fill="black"/>
<path d="M106.4 84.6002H100.8V90.2402H106.4V84.6002Z" fill="black"/>
<path d="M112 86.539C112 86.0029 111.812 85.5457 111.437 85.1675C111.061 84.7894 110.607 84.6002 110.075 84.6002H106.4V90.2402H112V86.539Z" fill="black"/>
<path d="M123.2 84.6002H117.6V88.3015C117.6 88.8376 117.788 89.2947 118.163 89.6729C118.539 90.0511 118.993 90.2402 119.525 90.2402H123.2V84.6002Z" fill="black"/>
<path d="M128.8 84.6002H123.2V90.2402H128.8V84.6002Z" fill="black"/>
<path d="M139.989 86.4068H140V84.6002H134.4V86.4068H134.411C134.404 86.4655 134.4 86.5096 134.4 86.539V88.3015C134.4 88.8376 134.588 89.2947 134.963 89.6729C135.339 90.0511 135.793 90.2402 136.325 90.2402H138.075C138.607 90.2402 139.061 90.0511 139.437 89.6729C139.812 89.2947 140 88.8376 140 88.3015V86.539C140 86.5096 139.996 86.4655 139.989 86.4068Z" fill="black"/>
<path d="M5.58908 92.0469H5.6V90.2404H0V92.0469H0.01092C0.00364 92.1057 0 92.1497 0 92.1791V93.9416C0 94.4777 0.187768 94.9349 0.563304 95.313C0.93884 95.6912 1.39272 95.8804 1.925 95.8804H3.675C4.20728 95.8804 4.66122 95.6912 5.0367 95.313C5.41218 94.9349 5.6 94.4777 5.6 93.9416V92.1791C5.6 92.1497 5.59647 92.1057 5.58908 92.0469Z" fill="black"/>
<path d="M16.789 92.0469H16.8V90.2404H11.2V92.0469H11.2109C11.2036 92.1057 11.2 92.1497 11.2 92.1791V93.9416C11.2 94.4777 11.3877 94.9349 11.7633 95.313C12.1388 95.6912 12.5927 95.8804 13.125 95.8804H14.875C15.4072 95.8804 15.8612 95.6912 16.2366 95.313C16.6121 94.9349 16.8 94.4777 16.8 93.9416V92.1791C16.8 92.1497 16.7964 92.1057 16.789 92.0469Z" fill="black"/>
<path d="M28.0001 90.2404H22.4001V93.9416C22.4001 94.4777 22.5879 94.9349 22.9635 95.313C23.339 95.6912 23.7929 95.8804 24.3251 95.8804H28.0001V90.2404Z" fill="black"/>
<path d="M33.6 90.2404H28V95.8804H33.6V90.2404Z" fill="black"/>
<path d="M39.2001 90.2404H33.6001V95.8804H39.2001V90.2404Z" fill="black"/>
<path d="M44.8 90.2404H39.2V95.8804H42.875C43.4072 95.8804 43.8612 95.6912 44.2366 95.313C44.6121 94.9349 44.8 94.4777 44.8 93.9416V90.2404Z" fill="black"/>
<path d="M55.989 92.0469H55.9999V90.2404H50.3999V92.0469H50.4108C50.4035 92.1057 50.3999 92.1497 50.3999 92.1791V93.9416C50.3999 94.4777 50.5877 94.9349 50.9632 95.313C51.3387 95.6912 51.7926 95.8804 52.3249 95.8804H54.0749C54.6072 95.8804 55.0611 95.6912 55.4366 95.313C55.8121 94.9349 55.9999 94.4777 55.9999 93.9416V92.1791C55.9999 92.1497 55.9964 92.1057 55.989 92.0469Z" fill="black"/>
<path d="M78.4 92.1791C78.4 91.643 78.2122 91.1858 77.8367 90.8077C77.4613 90.4295 77.0073 90.2404 76.475 90.2404H74.725C74.1928 90.2404 73.7388 90.4295 73.3634 90.8077C72.9879 91.1859 72.8 91.643 72.8 92.1791V93.9416C72.8 93.971 72.8037 94.0151 72.811 94.0738H72.8V95.8804H78.4V94.0738H78.3891C78.3965 94.0151 78.4 93.971 78.4 93.9416V92.1791Z" fill="black"/>
<path d="M95.2001 90.2404H89.6001V95.8804H95.2001V90.2404Z" fill="black"/>
<path d="M100.8 90.2404H95.2V95.8804H100.8V90.2404Z" fill="black"/>
<path d="M106.4 90.2404H100.8V95.8804H106.4V90.2404Z" fill="black"/>
<path d="M112 90.2404H106.4V95.8804H112V90.2404Z" fill="black"/>
<path d="M117.6 92.1791C117.6 91.643 117.412 91.1858 117.037 90.8077C116.661 90.4295 116.207 90.2404 115.675 90.2404H112V95.8804H117.6V92.1791Z" fill="black"/>
<path d="M128.8 90.2404H123.2V95.8804H128.8V90.2404Z" fill="black"/>
<path d="M134.4 92.1791C134.4 91.643 134.212 91.1858 133.837 90.8077C133.461 90.4295 133.007 90.2404 132.475 90.2404H128.8V95.8804H134.4V92.1791Z" fill="black"/>
<path d="M50.4 97.8188C50.4 97.2827 50.2122 96.8255 49.8367 96.4473C49.4613 96.0692 49.0073 95.88 48.475 95.88H46.725C46.1928 95.88 45.7388 96.0691 45.3634 96.4473C44.9879 96.8256 44.8 97.2827 44.8 97.8188V99.5813C44.8 99.6106 44.8037 99.6547 44.811 99.7135H44.8V101.52H50.4V99.7135H50.3891C50.3965 99.6547 50.4 99.6107 50.4 99.5813V97.8188Z" fill="black"/>
<path d="M67.2001 97.8188V95.88H63.5251C62.9928 95.88 62.5389 96.0691 62.1634 96.4473C61.7879 96.8256 61.6001 97.2827 61.6001 97.8188V101.52H67.2001V97.8188Z" fill="black"/>
<path d="M72.8 95.88H67.2V101.52H72.8V95.88Z" fill="black"/>
<path d="M78.4 95.88H72.8V101.52H76.475C77.0073 101.52 77.4613 101.331 77.8367 100.953C78.2122 100.575 78.4 100.117 78.4 99.5813V95.88Z" fill="black"/>
<path d="M95.2001 95.88H89.6001V101.52H95.2001V95.88Z" fill="black"/>
<path d="M117.6 95.88H112V101.52H117.6V95.88Z" fill="black"/>
<path d="M128.8 95.88H123.2V99.5813C123.2 100.117 123.388 100.575 123.763 100.953C124.139 101.331 124.593 101.52 125.125 101.52H128.8V95.88Z" fill="black"/>
<path d="M134.4 95.88H128.8V101.52H132.475C133.007 101.52 133.461 101.331 133.837 100.953C134.212 100.575 134.4 100.117 134.4 99.5813V95.88Z" fill="black"/>
<path d="M50.4 101.52H44.8V107.16H50.4V101.52Z" fill="black"/>
<path d="M55.9999 101.52H50.3999V107.16H55.9999V101.52Z" fill="black"/>
<path d="M61.6 101.52H56V107.16H61.6V101.52Z" fill="black"/>
<path d="M67.2001 101.52H61.6001V107.16H65.2751C65.8074 107.16 66.2613 106.971 66.6368 106.593C67.0123 106.215 67.2001 105.757 67.2001 105.221V101.52Z" fill="black"/>
<path d="M89.6 103.459V101.52H85.925C85.3927 101.52 84.9388 101.709 84.5633 102.087C84.1878 102.466 84 102.923 84 103.459V107.16H89.6V103.459Z" fill="black"/>
<path d="M95.2001 101.52H89.6001V107.16H95.2001V101.52Z" fill="black"/>
<path d="M106.4 105.221C106.4 105.757 106.212 106.215 105.837 106.593C105.461 106.971 105.007 107.16 104.475 107.16H102.725C102.193 107.16 101.739 106.971 101.363 106.593C100.988 106.215 100.8 105.757 100.8 105.221V103.459C100.8 102.923 100.988 102.466 101.363 102.087C101.739 101.709 102.193 101.52 102.725 101.52H104.475C105.007 101.52 105.461 101.709 105.837 102.087C106.212 102.466 106.4 102.923 106.4 103.459V105.221Z" fill="black"/>
<path d="M117.6 101.52H112V107.16H117.6V101.52Z" fill="black"/>
<path d="M140 105.221C140 105.757 139.812 106.215 139.437 106.593C139.061 106.971 138.607 107.16 138.075 107.16H136.325C135.793 107.16 135.339 106.971 134.963 106.593C134.588 106.215 134.4 105.757 134.4 105.221V103.459C134.4 102.923 134.588 102.466 134.963 102.087C135.339 101.709 135.793 101.52 136.325 101.52H138.075C138.607 101.52 139.061 101.709 139.437 102.087C139.812 102.466 140 102.923 140 103.459V105.221Z" fill="black"/>
<path d="M50.4 107.16H44.8V112.8H50.4V107.16Z" fill="black"/>
<path d="M55.9999 107.16H50.3999V112.8H55.9999V107.16Z" fill="black"/>
<path d="M61.6 107.16H56V112.8H61.6V107.16Z" fill="black"/>
<path d="M72.8 109.099V107.16H69.125C68.5927 107.16 68.1387 107.349 67.7633 107.727C67.3878 108.106 67.2 108.563 67.2 109.099V112.8H72.8V109.099Z" fill="black"/>
<path d="M76.475 107.16H72.8V112.8H76.475C77.0073 112.8 77.4613 112.611 77.8367 112.233C78.2122 111.855 78.4 111.397 78.4 110.861V109.099C78.4 108.563 78.2122 108.106 77.8367 107.727C77.4613 107.349 77.0073 107.16 76.475 107.16Z" fill="black"/>
<path d="M89.6 107.16H84V112.8H89.6V107.16Z" fill="black"/>
<path d="M95.2001 107.16H89.6001V112.8H95.2001V107.16Z" fill="black"/>
<path d="M117.6 107.16H112V112.8H117.6V107.16Z" fill="black"/>
<path d="M134.4 109.099C134.4 108.563 134.212 108.106 133.837 107.727C133.461 107.349 133.007 107.16 132.475 107.16H130.725C130.193 107.16 129.739 107.349 129.363 107.727C128.988 108.106 128.8 108.563 128.8 109.099V110.861C128.8 110.891 128.804 110.935 128.811 110.994H128.8V112.8H134.4V110.994H134.389C134.397 110.935 134.4 110.891 134.4 110.861V109.099Z" fill="black"/>
<path d="M50.4 112.8H44.8V118.44H50.4V112.8Z" fill="black"/>
<path d="M61.5891 114.607H61.6V112.8H56V114.607H56.0109C56.0036 114.665 56 114.709 56 114.739V116.501C56 117.037 56.1878 117.495 56.5633 117.873C56.9388 118.251 57.3927 118.44 57.925 118.44H59.675C60.2073 118.44 60.6612 118.251 61.0367 117.873C61.4122 117.495 61.6 117.037 61.6 116.501V114.739C61.6 114.709 61.5965 114.665 61.5891 114.607Z" fill="black"/>
<path d="M72.789 114.607H72.8V112.8H67.2V114.607H67.2109C67.2036 114.665 67.2 114.709 67.2 114.739V116.501C67.2 117.037 67.3877 117.495 67.7633 117.873C68.1388 118.251 68.5927 118.44 69.125 118.44H70.875C71.4072 118.44 71.8612 118.251 72.2366 117.873C72.6121 117.495 72.8 117.037 72.8 116.501V114.739C72.8 114.709 72.7964 114.665 72.789 114.607Z" fill="black"/>
<path d="M83.9999 114.739V112.8H80.3249C79.7926 112.8 79.3387 112.989 78.9632 113.367C78.5877 113.746 78.3999 114.203 78.3999 114.739V116.501C78.3999 117.037 78.5877 117.495 78.9632 117.873C79.3387 118.251 79.7926 118.44 80.3249 118.44H83.9999V114.739Z" fill="black"/>
<path d="M89.6 112.8H84V118.44H89.6V112.8Z" fill="black"/>
<path d="M95.2001 112.8H89.6001V118.44H95.2001V112.8Z" fill="black"/>
<path d="M100.8 112.8H95.2V118.44H100.8V112.8Z" fill="black"/>
<path d="M106.4 112.8H100.8V118.44H106.4V112.8Z" fill="black"/>
<path d="M112 112.8H106.4V118.44H112V112.8Z" fill="black"/>
<path d="M117.6 112.8H112V118.44H115.675C116.207 118.44 116.661 118.251 117.037 117.873C117.412 117.495 117.6 117.037 117.6 116.501V112.8Z" fill="black"/>
<path d="M134.4 112.8H128.8V118.44H134.4V112.8Z" fill="black"/>
<path d="M140 114.739C140 114.203 139.812 113.746 139.437 113.367C139.061 112.989 138.607 112.8 138.075 112.8H134.4V118.44H140V114.739Z" fill="black"/>
<path d="M50.4 118.44H44.8V122.141C44.8 122.677 44.9878 123.135 45.3634 123.513C45.7389 123.891 46.1928 124.08 46.725 124.08H50.4V118.44Z" fill="black"/>
<path d="M54.0749 118.44H50.3999V124.08H54.0749C54.6072 124.08 55.0611 123.891 55.4366 123.513C55.8121 123.135 55.9999 122.677 55.9999 122.141V120.379C55.9999 119.843 55.8121 119.386 55.4366 119.007C55.0611 118.629 54.6072 118.44 54.0749 118.44Z" fill="black"/>
<path d="M89.5891 120.247H89.6V118.44H84V120.247H84.0109C84.0036 120.305 84 120.349 84 120.379V122.141C84 122.677 84.1878 123.135 84.5633 123.513C84.9388 123.891 85.3927 124.08 85.925 124.08H87.675C88.2073 124.08 88.6612 123.891 89.0367 123.513C89.4122 123.135 89.6 122.677 89.6 122.141V120.379C89.6 120.349 89.5965 120.305 89.5891 120.247Z" fill="black"/>
<path d="M100.8 118.44H95.2V124.08H100.8V118.44Z" fill="black"/>
<path d="M106.4 118.44H100.8V124.08H104.475C105.007 124.08 105.461 123.891 105.837 123.513C106.212 123.135 106.4 122.677 106.4 122.141V118.44Z" fill="black"/>
<path d="M134.4 118.44H128.8V124.08H134.4V118.44Z" fill="black"/>
<path d="M140 118.44H134.4V124.08H140V118.44Z" fill="black"/>
<path d="M72.8 127.781C72.8 128.317 72.6121 128.774 72.2366 129.153C71.8612 129.531 71.4073 129.72 70.875 129.72H69.125C68.5927 129.72 68.1388 129.531 67.7633 129.153C67.3878 128.774 67.2 128.317 67.2 127.781V126.019C67.2 125.483 67.3877 125.026 67.7633 124.647C68.1388 124.269 68.5927 124.08 69.125 124.08H70.875C71.4074 124.08 71.8613 124.269 72.2366 124.647C72.6121 125.026 72.8 125.483 72.8 126.019V127.781Z" fill="black"/>
<path d="M95.2001 126.019V124.08H91.5251C90.9928 124.08 90.5389 124.269 90.1634 124.647C89.7879 125.026 89.6001 125.483 89.6001 126.019V127.781C89.6001 128.317 89.7879 128.774 90.1634 129.153C90.5389 129.531 90.9928 129.72 91.5251 129.72H95.2001V126.019Z" fill="black"/>
<path d="M100.8 124.08H95.2V129.72H98.875C99.4072 129.72 99.8612 129.531 100.237 129.153C100.612 128.774 100.8 128.317 100.8 127.781V124.08Z" fill="black"/>
<path d="M117.6 126.019V124.08H113.925C113.393 124.08 112.939 124.269 112.563 124.647C112.188 125.026 112 125.483 112 126.019V129.72H117.6V126.019Z" fill="black"/>
<path d="M123.2 124.08H117.6V129.72H123.2V124.08Z" fill="black"/>
<path d="M128.8 124.08H123.2V129.72H128.8V124.08Z" fill="black"/>
<path d="M134.4 124.08H128.8V129.72H134.4V124.08Z" fill="black"/>
<path d="M140 124.08H134.4V129.72H140V124.08Z" fill="black"/>
<path d="M55.9999 133.421C55.9999 133.958 55.812 134.415 55.4366 134.793C55.0611 135.171 54.6073 135.36 54.0749 135.36H52.3249C51.7927 135.36 51.3387 135.171 50.9633 134.793C50.5877 134.415 50.3999 133.958 50.3999 133.421V131.659C50.3999 131.123 50.5877 130.666 50.9632 130.287C51.3388 129.909 51.7927 129.72 52.3249 129.72H54.0749C54.6073 129.72 55.0612 129.909 55.4366 130.287C55.8121 130.666 55.9999 131.123 55.9999 131.659V133.421Z" fill="black"/>
<path d="M106.4 131.659V129.72H102.725C102.193 129.72 101.739 129.909 101.363 130.287C100.988 130.666 100.8 131.123 100.8 131.659V135.36H106.4V131.659Z" fill="black"/>
<path d="M112 129.72H106.4V135.36H112V129.72Z" fill="black"/>
<path d="M117.6 129.72H112V135.36H115.675C116.207 135.36 116.661 135.171 117.037 134.793C117.412 134.415 117.6 133.957 117.6 133.421V129.72Z" fill="black"/>
<path d="M128.8 129.72H123.2V133.421C123.2 133.957 123.388 134.415 123.763 134.793C124.139 135.171 124.593 135.36 125.125 135.36H128.8V129.72Z" fill="black"/>
<path d="M134.4 129.72H128.8V135.36H134.4V129.72Z" fill="black"/>
<path d="M140 129.72H134.4V135.36H140V129.72Z" fill="black"/>
<path d="M50.4 139.061C50.4 139.598 50.2122 140.055 49.8367 140.433C49.4613 140.811 49.0074 141 48.475 141H46.725C46.1928 141 45.7389 140.811 45.3634 140.433C44.9879 140.055 44.8 139.598 44.8 139.061V137.299C44.8 136.763 44.9878 136.306 45.3634 135.927C45.7389 135.549 46.1928 135.36 46.725 135.36H48.475C49.0075 135.36 49.4614 135.549 49.8367 135.927C50.2122 136.306 50.4 136.763 50.4 137.299V139.061Z" fill="black"/>
<path d="M61.6 139.061C61.6 139.598 61.4121 140.055 61.0367 140.433C60.6612 140.811 60.2074 141 59.675 141H57.925C57.3928 141 56.9388 140.811 56.5634 140.433C56.1878 140.055 56 139.598 56 139.061V137.299C56 136.763 56.1878 136.306 56.5633 135.927C56.9389 135.549 57.3928 135.36 57.925 135.36H59.675C60.2074 135.36 60.6613 135.549 61.0367 135.927C61.4122 136.306 61.6 136.763 61.6 137.299V139.061Z" fill="black"/>
<path d="M72.8 137.299V135.36H69.125C68.5927 135.36 68.1387 135.549 67.7633 135.927C67.3878 136.306 67.2 136.763 67.2 137.299V139.061C67.2 139.597 67.3877 140.055 67.7633 140.433C68.1388 140.811 68.5927 141 69.125 141H72.8V137.299Z" fill="black"/>
<path d="M78.4 135.36H72.8V141H78.4V135.36Z" fill="black"/>
<path d="M83.9999 135.36H78.3999V141H83.9999V135.36Z" fill="black"/>
<path d="M89.6 135.36H84V141H89.6V135.36Z" fill="black"/>
<path d="M93.2751 135.36H89.6001V141H93.2751C93.8074 141 94.2613 140.811 94.6368 140.433C95.0123 140.055 95.2001 139.597 95.2001 139.061V137.299C95.2001 136.763 95.0123 136.306 94.6368 135.927C94.2613 135.549 93.8074 135.36 93.2751 135.36Z" fill="black"/>
<path d="M106.389 137.167H106.4V135.36H100.8V137.167H100.811C100.804 137.225 100.8 137.269 100.8 137.299V139.061C100.8 139.597 100.988 140.055 101.363 140.433C101.739 140.811 102.193 141 102.725 141H104.475C105.007 141 105.461 140.811 105.837 140.433C106.212 140.055 106.4 139.597 106.4 139.061V137.299C106.4 137.269 106.397 137.225 106.389 137.167Z" fill="black"/>
<path d="M123.2 139.061C123.2 139.598 123.012 140.055 122.637 140.433C122.261 140.811 121.807 141 121.275 141H119.525C118.993 141 118.539 140.811 118.163 140.433C117.788 140.055 117.6 139.598 117.6 139.061V137.299C117.6 136.763 117.788 136.306 118.163 135.927C118.539 135.549 118.993 135.36 119.525 135.36H121.275C121.807 135.36 122.261 135.549 122.637 135.927C123.012 136.306 123.2 136.763 123.2 137.299V139.061Z" fill="black"/>
<path d="M139.989 137.167H140V135.36H134.4V137.167H134.411C134.404 137.225 134.4 137.269 134.4 137.299V139.061C134.4 139.597 134.588 140.055 134.963 140.433C135.339 140.811 135.793 141 136.325 141H138.075C138.607 141 139.061 140.811 139.437 140.433C139.812 140.055 140 139.597 140 139.061V137.299C140 137.269 139.996 137.225 139.989 137.167Z" fill="black"/>
<path d="M25.8167 0.00317383H13.3833C7.32374 0.00317383 2.1901 4.03527 0.5488 9.54628C0.379064 10.1164 0.246568 10.7023 0.154448 11.3012C0.05292 11.9621 0 12.6387 0 13.3277V26.1472C0 33.498 6.00544 39.4757 13.3833 39.4757L19.6 39.4768L25.8167 39.4753C33.1942 39.4753 39.2 33.4976 39.2 26.1468V13.3277C39.2 5.98044 33.1946 0.00317383 25.8167 0.00317383ZM33.32 26.1472C33.32 30.231 29.9543 33.5537 25.8152 33.5537L19.6 33.5548L13.3848 33.5533C9.24571 33.5533 5.88 30.2306 5.88 26.1472V13.3277C5.88 12.0521 6.2085 10.8511 6.7867 9.80171C7.34334 8.79221 8.13087 7.92405 9.07911 7.2667C10.2982 6.42144 11.7827 5.92517 13.3829 5.92517H25.8167C29.9543 5.92517 33.32 9.24583 33.32 13.3277V26.1472Z" fill="black"/>
<path d="M126.617 0.00317383H114.183C108.124 0.00317383 102.99 4.03527 101.349 9.54628C101.179 10.1164 101.047 10.7023 100.954 11.3012C100.853 11.9621 100.8 12.6387 100.8 13.3277V26.1472C100.8 33.498 106.805 39.4757 114.183 39.4757L120.4 39.4768L126.617 39.4753C133.994 39.4753 140 33.4976 140 26.1468V13.3277C140 5.98044 133.995 0.00317383 126.617 0.00317383ZM134.12 26.1472C134.12 30.231 130.754 33.5537 126.615 33.5537L120.4 33.5548L114.185 33.5533C110.046 33.5533 106.68 30.2306 106.68 26.1472V13.3277C106.68 12.0521 107.009 10.8511 107.587 9.80171C108.143 8.79221 108.931 7.92405 109.879 7.2667C111.098 6.42144 112.583 5.92517 114.183 5.92517H126.617C130.754 5.92517 134.12 9.24583 134.12 13.3277V26.1472Z" fill="black"/>
<path d="M25.8167 101.523H13.3833C7.32374 101.523 2.1901 105.555 0.5488 111.066C0.379064 111.636 0.246568 112.222 0.154448 112.821C0.05292 113.482 0 114.159 0 114.847V127.667C0 135.018 6.00544 140.995 13.3833 140.995L19.6 140.997L25.8167 140.995C33.1942 140.995 39.2 135.017 39.2 127.667V114.847C39.2 107.5 33.1946 101.523 25.8167 101.523ZM33.32 127.667C33.32 131.751 29.9543 135.073 25.8152 135.073L19.6 135.075L13.3848 135.073C9.24571 135.073 5.88 131.75 5.88 127.667V114.847C5.88 113.572 6.2085 112.371 6.7867 111.321C7.34334 110.312 8.13087 109.444 9.07911 108.786C10.2982 107.941 11.7827 107.445 13.3829 107.445H25.8167C29.9543 107.445 33.32 110.766 33.32 114.847V127.667Z" fill="black"/>
<path d="M28 11.2799H11.2V28.1999H28V11.2799Z" fill="black"/>
<path d="M128.8 11.2799H112V28.1999H128.8V11.2799Z" fill="black"/>
<path d="M28 112.8H11.2V129.72H28V112.8Z" fill="black"/>
</svg>
